<svg width="20" height="20" viewBox="0 0 20 20" fill="none" xmlns="http://www.w3.org/2000/svg">
<circle cx="10" cy="10" r="10" fill="#E6E5E5"/>
<g clip-path="url(#clip0_102_37)">
<path d="M5.78367 5.78365C5.88525 5.68207 6.02303 5.625 6.16669 5.625H11.0417C11.1853 5.625 11.3231 5.68207 11.4247 5.78365C11.5263 5.88523 11.5834 6.02301 11.5834 6.16667V6.70833C11.5834 7.00749 11.8259 7.25 12.125 7.25C12.4242 7.25 12.6667 7.00749 12.6667 6.70833V6.16667C12.6667 5.73569 12.4955 5.32237 12.1907 5.01762C11.886 4.71287 11.4727 4.54167 11.0417 4.54167H6.16669C5.73571 4.54167 5.32239 4.71287 5.01764 5.01762C4.71289 5.32237 4.54169 5.73569 4.54169 6.16667V11.0417C4.54169 11.4726 4.71289 11.886 5.01764 12.1907C5.32238 12.4955 5.73571 12.6667 6.16669 12.6667H6.70835C7.00751 12.6667 7.25002 12.4242 7.25002 12.125C7.25002 11.8258 7.00751 11.5833 6.70835 11.5833H6.16669C6.02303 11.5833 5.88525 11.5263 5.78367 11.4247C5.68209 11.3231 5.62502 11.1853 5.62502 11.0417V6.16667C5.62502 6.02301 5.68209 5.88523 5.78367 5.78365Z" fill="#FF1616"/>
<path fill-rule="evenodd" clip-rule="evenodd" d="M9.95835 8.33333C9.06089 8.33333 8.33335 9.06087 8.33335 9.95833V14.8333C8.33335 15.7308 9.06089 16.4583 9.95835 16.4583H14.8334C15.7308 16.4583 16.4584 15.7308 16.4584 14.8333V9.95833C16.4584 9.06087 15.7308 8.33333 14.8334 8.33333H9.95835ZM9.41669 9.95833C9.41669 9.65918 9.6592 9.41667 9.95835 9.41667H14.8334C15.1325 9.41667 15.375 9.65918 15.375 9.95833V14.8333C15.375 15.1325 15.1325 15.375 14.8334 15.375H9.95835C9.6592 15.375 9.41669 15.1325 9.41669 14.8333V9.95833Z" fill="#FF1616"/>
</g>
<defs>
<clipPath id="clip0_102_37">
<rect width="13" height="13" fill="white" transform="translate(4 4)"/>
</clipPath>
</defs>
</svg>
