<svg width="24" height="24" viewBox="0 0 24 24" fill="none" xmlns="http://www.w3.org/2000/svg">
<circle cx="11.8794" cy="11.8794" r="10.1823" fill="#E6E5E5"/>
<path d="M9 8C8.72386 7.72386 8.27614 7.72386 8 8C7.72386 8.27614 7.72386 8.72386 8 9L11 12L8 15C7.72386 15.2761 7.72386 15.7239 8 16C8.27614 16.2761 8.72386 16.2761 9 16L12 13L15 16C15.2761 16.2761 15.7239 16.2761 16 16C16.2761 15.7239 16.2761 15.2761 16 15L13 12L16 9C16.2761 8.72386 16.2761 8.27614 16 8C15.7239 7.72386 15.2761 7.72386 15 8L12 11L9 8Z" fill="#FF1616"/>
</svg>
