<svg width="24" height="25" viewBox="0 0 24 25" fill="none" xmlns="http://www.w3.org/2000/svg">
<circle cx="11.8794" cy="12.2127" r="10.1823" fill="#FF1616"/>
<path d="M9 8.33333C8.72386 8.05719 8.27614 8.05719 8 8.33333C7.72386 8.60947 7.72386 9.05719 8 9.33333L11 12.3333L8 15.3333C7.72386 15.6095 7.72386 16.0572 8 16.3333C8.27614 16.6095 8.72386 16.6095 9 16.3333L12 13.3333L15 16.3333C15.2761 16.6095 15.7239 16.6095 16 16.3333C16.2761 16.0572 16.2761 15.6095 16 15.3333L13 12.3333L16 9.33333C16.2761 9.05719 16.2761 8.60947 16 8.33333C15.7239 8.05719 15.2761 8.05719 15 8.33333L12 11.3333L9 8.33333Z" fill="white"/>
</svg>
