<svg width="20" height="20" viewBox="0 0 20 20" fill="none" xmlns="http://www.w3.org/2000/svg">
<circle cx="10" cy="10" r="10" fill="#FF1616"/>
<g clip-path="url(#clip0_102_20)">
<path d="M5.78364 5.78367C5.88522 5.68209 6.023 5.62502 6.16666 5.62502H11.0417C11.1853 5.62502 11.3231 5.68209 11.4247 5.78367C11.5263 5.88525 11.5833 6.02303 11.5833 6.16669V6.70835C11.5833 7.00751 11.8258 7.25002 12.125 7.25002C12.4241 7.25002 12.6667 7.00751 12.6667 6.70835V6.16669C12.6667 5.73571 12.4955 5.32238 12.1907 5.01764C11.886 4.71289 11.4726 4.54169 11.0417 4.54169H6.16666C5.73568 4.54169 5.32235 4.71289 5.01761 5.01764C4.71286 5.32239 4.54166 5.73571 4.54166 6.16669V11.0417C4.54166 11.4727 4.71286 11.886 5.01761 12.1907C5.32235 12.4955 5.73568 12.6667 6.16666 12.6667H6.70832C7.00748 12.6667 7.24999 12.4242 7.24999 12.125C7.24999 11.8259 7.00748 11.5834 6.70832 11.5834H6.16666C6.023 11.5834 5.88522 11.5263 5.78364 11.4247C5.68206 11.3231 5.62499 11.1853 5.62499 11.0417V6.16669C5.62499 6.02303 5.68206 5.88525 5.78364 5.78367Z" fill="white"/>
<path fill-rule="evenodd" clip-rule="evenodd" d="M9.95832 8.33335C9.06086 8.33335 8.33332 9.06089 8.33332 9.95835V14.8334C8.33332 15.7308 9.06086 16.4584 9.95832 16.4584H14.8333C15.7308 16.4584 16.4583 15.7308 16.4583 14.8334V9.95835C16.4583 9.06089 15.7308 8.33335 14.8333 8.33335H9.95832ZM9.41666 9.95835C9.41666 9.6592 9.65917 9.41669 9.95832 9.41669H14.8333C15.1325 9.41669 15.375 9.6592 15.375 9.95835V14.8334C15.375 15.1325 15.1325 15.375 14.8333 15.375H9.95832C9.65917 15.375 9.41666 15.1325 9.41666 14.8334V9.95835Z" fill="white"/>
</g>
<defs>
<clipPath id="clip0_102_20">
<rect width="13" height="13" fill="white" transform="translate(4 4)"/>
</clipPath>
</defs>
</svg>
